<?xml version="1.0" encoding="UTF-8" standalone="no"?><!DOCTYPE svg PUBLIC "-//W3C//DTD SVG 1.1//EN" "http://www.w3.org/Graphics/SVG/1.1/DTD/svg11.dtd"><svg width="100%" height="100%" viewBox="0 0 2611 702" version="1.1" xmlns="http://www.w3.org/2000/svg" xmlns:xlink="http://www.w3.org/1999/xlink" xml:space="preserve" xmlns:serif="http://www.serif.com/" style="fill-rule:evenodd;clip-rule:evenodd;stroke-linejoin:round;stroke-miterlimit:2;"><g><path d="M2266.17,623.083c0,-24.024 5.599,-43.197 16.797,-57.52c10.026,-12.955 22.168,-19.433 36.426,-19.433c14.258,-0 26.399,6.478 36.426,19.433c11.197,14.323 16.796,33.822 16.796,58.496c0,24.61 -5.599,44.076 -16.796,58.399c-10.027,12.956 -22.136,19.433 -36.329,19.433c-14.192,0 -26.367,-6.477 -36.523,-19.433c-11.198,-14.323 -16.797,-34.115 -16.797,-59.375Zm-81.836,54.98l56.153,0l-0,21.387l-101.27,-0l52.344,-63.379c5.143,-6.315 9.456,-11.784 12.939,-16.406c3.483,-4.623 6.136,-8.496 7.959,-11.621c3.711,-6.12 5.567,-11.621 5.567,-16.504c-0,-7.031 -2.474,-12.923 -7.422,-17.676c-4.948,-4.753 -11.068,-7.129 -18.36,-7.129c-15.234,0 -23.958,9.017 -26.172,27.051l-22.656,-0c3.646,-31.771 19.694,-47.656 48.145,-47.656c13.737,-0 25.26,4.362 34.57,13.086c9.375,8.724 14.063,19.531 14.063,32.421c-0,8.204 -2.181,16.244 -6.543,24.122c-2.214,4.101 -5.453,8.968 -9.717,14.599c-4.265,5.632 -9.652,12.289 -16.162,19.971l-23.438,27.734Zm246.875,0l56.153,0l-0,21.387l-101.27,-0l52.344,-63.379c5.143,-6.315 9.456,-11.784 12.939,-16.406c3.483,-4.623 6.136,-8.496 7.959,-11.621c3.711,-6.12 5.567,-11.621 5.567,-16.504c-0,-7.031 -2.474,-12.923 -7.422,-17.676c-4.948,-4.753 -11.068,-7.129 -18.36,-7.129c-15.234,0 -23.958,9.017 -26.172,27.051l-22.656,-0c3.646,-31.771 19.694,-47.656 48.145,-47.656c13.737,-0 25.26,4.362 34.57,13.086c9.375,8.724 14.063,19.531 14.063,32.421c-0,8.204 -2.181,16.244 -6.543,24.122c-2.214,4.101 -5.453,8.968 -9.717,14.599c-4.265,5.632 -9.652,12.289 -16.162,19.971l-23.438,27.734Zm123.438,0l56.152,0l0,21.387l-101.27,-0l52.344,-63.379c5.143,-6.315 9.457,-11.784 12.94,-16.406c3.483,-4.623 6.136,-8.496 7.959,-11.621c3.711,-6.12 5.566,-11.621 5.566,-16.504c0,-7.031 -2.474,-12.923 -7.422,-17.676c-4.948,-4.753 -11.068,-7.129 -18.359,-7.129c-15.235,0 -23.959,9.017 -26.172,27.051l-22.656,-0c3.646,-31.771 19.694,-47.656 48.144,-47.656c13.737,-0 25.261,4.362 34.571,13.086c9.375,8.724 14.062,19.531 14.062,32.421c0,8.204 -2.181,16.244 -6.543,24.122c-2.213,4.101 -5.452,8.968 -9.717,14.599c-4.264,5.632 -9.651,12.289 -16.162,19.971l-23.437,27.734Zm-266.114,-54.883c0,16.732 2.898,30.632 8.692,41.7c5.794,10.872 13.183,16.308 22.168,16.308c8.919,0 16.308,-5.436 22.168,-16.308c5.859,-10.808 8.789,-24.447 8.789,-40.918c-0,-16.472 -2.93,-30.144 -8.789,-41.016c-5.86,-10.807 -13.249,-16.211 -22.168,-16.211c-8.854,0 -16.211,5.404 -22.071,16.211c-5.859,10.742 -8.789,24.154 -8.789,40.234Z" style="fill-rule:nonzero;"/><path d="M172.149,187.833c4.086,4.086 6.382,9.628 6.382,15.407c0,0.001 0,116.879 0,116.879c0,5.78 -2.296,11.322 -6.382,15.409c-4.648,4.648 -10.504,10.504 -15.152,15.152c-4.087,4.087 -9.629,6.382 -15.409,6.383c-0.001,-0 -109.358,-0 -109.358,-0c-17.8,-0.001 -32.23,14.429 -32.23,32.229c0,28.543 0,73.295 0,101.838c0,17.8 14.43,32.23 32.23,32.23c0,0 109.357,0 109.357,0c5.781,0 11.323,2.296 15.41,6.383c4.648,4.648 10.504,10.504 15.152,15.152c4.086,4.086 6.382,9.629 6.382,15.408c0,0.001 0,109.358 0,109.358c0,17.8 14.43,32.23 32.23,32.23c28.543,0 73.295,0 101.838,0c17.8,0 32.23,-14.429 32.23,-32.23c-0,-28.542 -0,-73.294 -0,-101.837c-0,-17.8 -14.43,-32.23 -32.23,-32.23c-0,-0 -109.358,-0 -109.358,-0c-5.78,-0 -11.322,-2.296 -15.409,-6.383c-4.648,-4.648 -10.504,-10.504 -15.152,-15.152c-4.086,-4.086 -6.382,-9.629 -6.382,-15.408c-0,-0.001 -0,-116.879 -0,-116.879c-0,-5.779 2.296,-11.322 6.382,-15.408c4.648,-4.649 10.504,-10.505 15.152,-15.153c4.087,-4.086 9.629,-6.382 15.408,-6.382c0.001,-0 116.879,-0 116.879,-0c5.78,0 11.322,2.296 15.409,6.382c4.648,4.648 10.504,10.504 15.152,15.153c4.087,4.086 6.382,9.629 6.383,15.408c-0,0.001 -0,109.358 -0,109.358c-0.001,17.8 14.429,32.23 32.229,32.23c28.543,0 73.295,0 101.838,0c17.8,0 32.23,-14.43 32.23,-32.23c0,-28.543 0,-73.295 0,-101.838c0,-17.8 -14.43,-32.23 -32.23,-32.229c0,-0 -109.357,-0 -109.357,-0c-5.78,-0.001 -11.323,-2.296 -15.409,-6.383c-4.649,-4.648 -10.505,-10.504 -15.153,-15.152c-4.086,-4.087 -6.382,-9.629 -6.382,-15.408c-0,-0.001 -0,-109.359 -0,-109.359c-0,-8.548 -3.396,-16.745 -9.44,-22.79c-6.044,-6.044 -14.242,-9.44 -22.79,-9.44c-0,0 -109.358,0 -109.358,0c-5.78,0 -11.322,-2.296 -15.409,-6.382c-4.648,-4.648 -10.504,-10.504 -15.152,-15.152c-4.086,-4.087 -6.382,-9.629 -6.382,-15.409c-0,-0.001 -0,-109.358 -0,-109.358c-0,-17.8 -14.43,-32.23 -32.23,-32.23c-28.543,0 -73.295,0 -101.838,0c-17.8,0 -32.23,14.43 -32.23,32.23c0,28.543 0,73.295 0,101.838c0,17.8 14.43,32.23 32.23,32.23c0,-0 109.357,-0 109.357,-0c5.781,-0 11.323,2.296 15.41,6.382l15.152,15.153Z"/><path d="M2597.76,373.855c-51.448,48.704 -89.177,69.284 -150.915,69.284c-47.332,-0 -91.92,-17.15 -122.103,-49.391c-32.24,-34.984 -49.39,-88.49 -49.39,-163.947c0,-118.673 61.052,-202.362 164.634,-202.362c44.588,-0 80.259,19.893 110.441,52.134c17.15,18.521 27.439,38.414 35.671,76.143l15.777,-0l-6.173,-155.716l-13.72,0c-4.116,14.405 -15.777,22.637 -28.811,22.637c-11.661,0 -32.926,-8.232 -47.332,-12.347c-27.439,-7.546 -54.878,-10.29 -81.631,-10.29c-63.795,0 -122.789,22.637 -166.691,71.341c-39.101,43.902 -61.738,100.838 -61.738,169.436c0,67.911 24.009,130.334 65.854,171.493c39.786,39.1 99.466,61.051 161.889,61.051c80.945,0 147.485,-30.182 187.271,-87.118l-13.033,-12.348Zm-1851.44,-364.251l0,13.033c52.134,3.43 60.366,9.604 60.366,63.796l0,298.398c0,53.506 -6.86,62.423 -60.366,65.853l0,13.034l192.759,-0c69.283,-0 130.335,-16.464 172.865,-43.903c61.052,-39.1 93.292,-103.581 93.292,-185.212c0,-70.655 -23.323,-124.161 -67.911,-162.576c-46.646,-40.472 -117.301,-62.423 -205.792,-62.423l-185.213,-0Zm495.273,-0l-0,13.033c52.134,3.43 60.366,9.604 60.366,63.796l-0,298.398c-0,53.506 -6.86,62.423 -60.366,65.853l-0,13.034l192.758,-0c69.284,-0 130.335,-16.464 172.866,-43.903c61.051,-39.1 93.292,-103.581 93.292,-185.212c-0,-70.655 -23.323,-124.161 -67.911,-162.576c-46.647,-40.472 -117.302,-62.423 -205.792,-62.423l-185.213,-0Zm941.841,454.114l-0,-13.034c-35.671,-4.116 -45.274,-18.521 -64.482,-63.109l-168.749,-386.203l-13.719,-0l-141.311,334.755c-40.472,96.036 -46.646,110.441 -86.432,114.557l-0,13.034l136.508,-0l0,-13.034c-32.927,0 -48.018,-6.859 -48.018,-28.125c0,-8.231 2.744,-19.893 6.174,-28.811l31.555,-78.2l179.724,-0l28.125,64.481c8.232,19.207 13.034,37.729 13.034,48.018c-0,6.174 -4.116,13.72 -9.604,16.463c-8.231,4.802 -13.033,6.174 -37.728,6.174l-0,13.034l174.923,-0Zm-1306.78,-399.923c0,-22.637 10.29,-28.81 36.357,-28.81c68.597,-0 111.813,11.661 152.286,47.332c43.216,37.728 65.167,85.06 65.167,156.402c0,77.515 -23.323,131.706 -71.341,163.947c-41.158,27.439 -78.887,35.671 -149.542,35.671c-26.753,-0 -32.927,-8.232 -32.927,-32.241l0,-342.301Zm495.273,0c-0,-22.637 10.289,-28.81 36.356,-28.81c68.598,-0 111.814,11.661 152.286,47.332c43.217,37.728 65.168,85.06 65.168,156.402c-0,77.515 -23.323,131.706 -71.341,163.947c-41.159,27.439 -78.887,35.671 -149.542,35.671c-26.753,-0 -32.927,-8.232 -32.927,-32.241l-0,-342.301Zm633.153,223.628l-158.46,-0l78.887,-188.643l79.573,188.643Z" style="fill-rule:nonzero;"/></g></svg>